<?xml version="1.0" encoding="UTF-8"?>
<svg width="700pt" height="700pt" version="1.1" viewBox="0 0 700 700" xmlns="http://www.w3.org/2000/svg">
 <g>
  <path d="m568.61 91.543h-17.883c-7.7266 0-14 6.2734-14 14 0 7.7266 6.2734 14 14 14h17.883c13.551 0 24.715 10.641 25.367 24.172l-21.543 103.19c-7.7656 36.586-40.02 62.793-77.43 62.926h-205.03l-17.398-42.934h144.63c7.7266 0 14-6.2734 14-14 0-7.7266-6.2734-14-14-14h-155.98l-19.824-48.906h106.74c7.7266 0 14-6.2734 14-14 0-7.7266-6.2734-14-14-14h-118.09l-17.227-42.445h216.78c7.7266 0 14-6.2734 14-14 0-7.7266-6.2734-14-14-14h-228.13l-19.152-47.246c-0.12891-0.33594-0.31641-0.69141-0.42969-1.0273l-0.55859-1.0273c-6.0664-10.566-17.305-17.098-29.492-17.117h-59.848c-7.7266 0-14 6.2734-14 14s6.2734 14 14 14h59.844c1.9414 0 3.7695 0.95312 4.8906 2.5586l107.88 266.05-38.902 53.441c-9.8203 13.457-6.8711 32.332 6.5898 42.148 4.1992 3.0625 9.1289 5.0039 14.297 5.6016 51.836 5.6758 103.95 8.4922 156.11 8.418 55.609 0.39062 111.16-3.6406 166.13-12.078 7.6172-1.3438 12.691-8.5859 11.348-16.203-1.3438-7.6172-8.5859-12.691-16.203-11.348-53.367 8.0273-107.28 11.93-161.24 11.629-51.09 0.074219-102.16-2.6875-152.95-8.25-0.76563-0.019531-1.4375-0.52344-1.6992-1.25-0.35547-0.72656-0.26172-1.6055 0.26172-2.2383l39.238-53.871h207.43c50.645-0.16797 94.305-35.652 104.83-85.195l21.879-104.78c0.20703-0.93359 0.29687-1.9023 0.29687-2.8555-0.035156-29.477-23.93-53.352-53.402-53.367z"/>
  <path d="m276.47 449.05c-22.027-0.54297-40.301 16.895-40.844 38.922v0.019531c-0.52344 22.027 16.91 40.301 38.938 40.824s40.301-16.91 40.824-38.938c0.52344-22.012-16.91-40.289-38.918-40.828z"/>
  <path d="m527.46 455.05h-0.039063c-22.027-0.54297-40.301 16.895-40.844 38.922-0.54297 22.027 16.895 40.34 38.922 40.879 22.027 0.54297 40.34-16.875 40.879-38.922 0.54297-22.023-16.891-40.336-38.918-40.879z"/>
 </g>
</svg>
